<?xml version="1.0" encoding="utf-8"?>
<!-- Generator: Adobe Illustrator 21.1.0, SVG Export Plug-In . SVG Version: 6.00 Build 0)  -->
<svg version="1.1" id="Layer_1" xmlns="http://www.w3.org/2000/svg" xmlns:xlink="http://www.w3.org/1999/xlink" x="0px" y="0px"
	 viewBox="0 0 180 120" style="enable-background:new 0 0 180 120;" xml:space="preserve">
<style type="text/css">
	.st0{fill:#BFCDD7;}
	.st1{fill:url(#SVGID_1_);}
	.st2{fill:#4F748C;}
	.st3{fill:#FFFFFF;}
	.st4{fill:url(#SVGID_2_);}
	.st5{fill:url(#SVGID_3_);}
</style>
<g>
	<g>
		<path class="st0" d="M164.2,120H15.8C7.1,120,0,112.9,0,104.2V15.8C0,7.1,7.1,0,15.8,0h148.3c8.7,0,15.8,7.1,15.8,15.8v88.3
			C180,112.9,172.9,120,164.2,120z"/>
		<linearGradient id="SVGID_1_" gradientUnits="userSpaceOnUse" x1="86.7777" y1="50.7177" x2="168.6908" y2="133.4407">
			<stop  offset="0" style="stop-color:#7290A3"/>
			<stop  offset="0.2183" style="stop-color:#7D98AA"/>
			<stop  offset="0.6015" style="stop-color:#9AB0BE"/>
			<stop  offset="1" style="stop-color:#BFCDD7"/>
		</linearGradient>
		<path class="st1" d="M115.7,28.8l-4.5-2.3L64.1,78.1l40.7,41.9h59.4c8.7,0,15.8-7.1,15.8-15.8v-8.3L115.7,28.8z"/>
		<g>
			<circle class="st2" cx="90" cy="53" r="36"/>
		</g>
		<path class="st3" d="M112.5,71.8c1.5-1.8,1-4.7-0.9-6.6L100.4,54l0.8-0.8L100,52c-0.7-0.7-1.7-0.8-2.3-0.2l-1.9,1.9L80.2,38.1
			c-0.2-0.2-0.4-0.5-0.4-0.8l-0.2-0.9c-0.1-0.4-0.3-0.8-0.7-1.1l-4.1-2.7c-0.6-0.4-1.2-0.3-1.7,0.1l-0.4,0.4
			c-0.4,0.4-0.4,1.1-0.1,1.7l2.7,4.1c0.2,0.4,0.6,0.6,1.1,0.7l0.9,0.2c0.3,0.1,0.6,0.2,0.8,0.4l15.6,15.6l-1.9,1.9
			c-0.6,0.6-0.5,1.6,0.2,2.3l1.2,1.2l0.8-0.8l11.3,11.3C107.5,73.7,110.8,73.8,112.5,71.8z M107.3,70.7l-9-9
			c-0.4-0.4-0.4-0.9-0.1-1.3c0.3-0.3,0.9-0.3,1.3,0.1l9,9c0.4,0.4,0.4,0.9,0.1,1.3C108.2,71.1,107.7,71,107.3,70.7z M109.6,68.4
			l-9-9c-0.4-0.4-0.4-0.9-0.1-1.3c0.3-0.3,0.9-0.3,1.3,0.1l9,9c0.4,0.4,0.4,0.9,0.1,1.3C110.5,68.8,109.9,68.8,109.6,68.4z"/>
		<g>
			<path class="st3" d="M69.8,72.9c-0.9,0-1.8-0.4-2.5-1c-1.4-1.4-1.4-3.6,0-5L91.9,42c-1.4-3.4-0.7-7.4,2-10
				c1.7-1.8,4.1-2.7,6.5-2.7c1.4,0,2.9,0.3,4.1,1l1.2,0.6l-4.9,5c-0.3,0.3-0.5,0.7-0.5,1.2c0,0.4,0.2,0.8,0.6,1.1
				c0.3,0.3,0.7,0.3,0.9,0.3c0.5,0,0.9-0.2,1.3-0.5l4.8-4.9l0.6,1.2c1.8,3.6,1.1,7.8-1.7,10.7c-1.7,1.8-4.1,2.7-6.5,2.7l0,0
				c-1.2,0-2.4-0.2-3.5-0.7L72.4,71.9C71.7,72.6,70.8,72.9,69.8,72.9z"/>
			<path class="st2" d="M100.4,30.3c1.3,0,2.5,0.3,3.7,0.9l-3.9,4c-1.1,1.1-1,2.8,0.2,3.8c0.5,0.4,1,0.5,1.5,0.5
				c0.7,0,1.4-0.3,2-0.8l3.8-3.9c1.6,3.1,1.1,6.9-1.5,9.5c-1.6,1.6-3.7,2.4-5.8,2.4c-1.3,0-2.5-0.3-3.7-0.9L71.6,71.2
				c-0.5,0.5-1.2,0.8-1.8,0.8c-0.7,0-1.3-0.2-1.8-0.7c-1-1-1-2.6,0-3.6l25.1-25.3c-1.6-3.1-1.1-6.9,1.5-9.5
				C96.2,31.1,98.3,30.3,100.4,30.3 M69.8,70.7C69.8,70.7,69.8,70.7,69.8,70.7c0.8,0,1.4-0.7,1.4-1.4c0-0.8-0.6-1.4-1.4-1.4
				c0,0,0,0,0,0c-0.8,0-1.4,0.7-1.4,1.4C68.4,70.1,69,70.7,69.8,70.7 M100.4,28.3L100.4,28.3c-2.7,0-5.3,1.1-7.2,3
				c-2.8,2.8-3.7,6.8-2.4,10.5L66.6,66.2c-1.8,1.8-1.8,4.7,0,6.5c0.9,0.9,2,1.3,3.2,1.3c1.2,0,2.4-0.5,3.2-1.3l24.2-24.4
				c1,0.3,2.1,0.5,3.2,0.5c2.7,0,5.3-1.1,7.2-3c3.1-3.1,3.9-7.9,1.8-11.8l-1.3-2.5l-1.9,2l-3.8,3.9c-0.1,0.2-0.4,0.2-0.6,0.2
				c-0.1,0-0.2,0-0.3-0.1c-0.2-0.1-0.2-0.3-0.2-0.4c0-0.1,0-0.3,0.2-0.4l3.9-4l1.9-2l-2.5-1.2C103.6,28.7,102,28.3,100.4,28.3
				L100.4,28.3z"/>
		</g>
	</g>
	<g>
		<path class="st3" d="M49.4,99.8c0,0.1-0.1,0.1-0.1,0.1c0,0-0.1,0.1-0.2,0.1c-0.1,0-0.2,0-0.2-0.1c-0.1,0-0.2-0.1-0.3-0.2
			c-0.1-0.1-0.2-0.1-0.3-0.1s-0.3-0.1-0.5-0.1c-0.2,0-0.5,0-0.6,0.1c-0.2,0.1-0.3,0.2-0.5,0.4s-0.2,0.4-0.3,0.6
			c-0.1,0.2-0.1,0.5-0.1,0.8c0,0.6,0.1,1.1,0.4,1.5s0.6,0.5,1,0.5c0.2,0,0.3,0,0.4,0c0.1,0,0.2-0.1,0.3-0.1c0.1,0,0.2-0.1,0.2-0.1
			c0.1,0,0.1-0.1,0.2-0.1s0.1-0.1,0.2-0.1s0.1,0,0.2,0c0.1,0,0.2,0,0.3,0.1l0.5,0.6c-0.2,0.2-0.4,0.4-0.6,0.5
			c-0.2,0.1-0.4,0.2-0.6,0.3c-0.2,0.1-0.4,0.1-0.7,0.2c-0.2,0-0.4,0-0.7,0c-0.4,0-0.7-0.1-1.1-0.2s-0.6-0.3-0.9-0.6
			c-0.3-0.3-0.5-0.6-0.6-1s-0.2-0.8-0.2-1.4c0-0.5,0.1-0.9,0.2-1.3c0.1-0.4,0.3-0.7,0.6-1c0.3-0.3,0.6-0.5,1-0.7s0.8-0.2,1.3-0.2
			c0.5,0,0.9,0.1,1.2,0.2c0.4,0.2,0.7,0.4,1,0.7L49.4,99.8z"/>
		<path class="st3" d="M53,99c0.1-0.1,0.2-0.2,0.4-0.3c0.1-0.1,0.3-0.2,0.4-0.2c0.1-0.1,0.3-0.1,0.5-0.1c0.2,0,0.3-0.1,0.5-0.1
			c0.3,0,0.6,0.1,0.9,0.2c0.3,0.1,0.5,0.3,0.7,0.5s0.3,0.5,0.4,0.7s0.1,0.6,0.1,0.9v3.9h-1.6v-3.9c0-0.3-0.1-0.6-0.2-0.8
			s-0.4-0.3-0.7-0.3c-0.2,0-0.5,0.1-0.7,0.1c-0.2,0.1-0.4,0.2-0.6,0.4v4.4h-1.7v-8.9H53V99z"/>
		<path class="st3" d="M58.7,99.2c0.4-0.3,0.8-0.6,1.2-0.7s0.9-0.2,1.4-0.2c0.4,0,0.7,0.1,1,0.2s0.5,0.3,0.7,0.5s0.4,0.5,0.5,0.8
			c0.1,0.3,0.2,0.6,0.2,1v3.9h-0.8c-0.2,0-0.3,0-0.4-0.1s-0.1-0.1-0.2-0.3l-0.1-0.4c-0.2,0.1-0.3,0.3-0.5,0.4
			c-0.1,0.1-0.3,0.2-0.5,0.3c-0.2,0.1-0.3,0.1-0.5,0.2c-0.2,0-0.4,0.1-0.6,0.1c-0.3,0-0.5,0-0.7-0.1c-0.2-0.1-0.4-0.2-0.6-0.3
			s-0.3-0.3-0.4-0.5c-0.1-0.2-0.1-0.5-0.1-0.7c0-0.2,0.1-0.5,0.2-0.7s0.3-0.4,0.6-0.6c0.3-0.2,0.7-0.3,1.1-0.5
			c0.5-0.1,1.1-0.2,1.8-0.2v-0.3c0-0.4-0.1-0.7-0.2-0.9c-0.2-0.2-0.4-0.3-0.7-0.3c-0.2,0-0.4,0-0.6,0.1c-0.2,0.1-0.3,0.1-0.4,0.2
			c-0.1,0.1-0.2,0.1-0.3,0.2c-0.1,0.1-0.2,0.1-0.3,0.1c-0.1,0-0.2,0-0.3-0.1c-0.1-0.1-0.1-0.1-0.2-0.2L58.7,99.2z M62,102
			c-0.4,0-0.7,0.1-1,0.1c-0.3,0-0.5,0.1-0.6,0.2c-0.2,0.1-0.3,0.2-0.3,0.3c-0.1,0.1-0.1,0.2-0.1,0.3c0,0.2,0.1,0.4,0.2,0.5
			s0.3,0.1,0.6,0.1c0.3,0,0.5,0,0.7-0.1c0.2-0.1,0.4-0.3,0.6-0.5V102z"/>
		<path class="st3" d="M67.2,99.1c0.1-0.1,0.3-0.2,0.4-0.3c0.1-0.1,0.3-0.2,0.4-0.3c0.1-0.1,0.3-0.1,0.5-0.2c0.2,0,0.4-0.1,0.6-0.1
			c0.3,0,0.6,0.1,0.9,0.2c0.3,0.1,0.5,0.3,0.7,0.5s0.3,0.5,0.4,0.7s0.1,0.6,0.1,0.9v3.9h-1.6v-3.9c0-0.3-0.1-0.6-0.2-0.8
			s-0.4-0.3-0.7-0.3c-0.2,0-0.5,0.1-0.7,0.1c-0.2,0.1-0.4,0.2-0.6,0.4v4.4h-1.7v-6.2h1c0.2,0,0.3,0.1,0.4,0.3L67.2,99.1z"/>
		<path class="st3" d="M78.6,98.6v0.6c0,0.1,0,0.2-0.1,0.2s-0.1,0.1-0.3,0.1l-0.5,0.1c0.1,0.2,0.1,0.4,0.1,0.6
			c0,0.3-0.1,0.6-0.2,0.8s-0.3,0.5-0.5,0.6c-0.2,0.2-0.5,0.3-0.8,0.4c-0.3,0.1-0.6,0.1-1,0.1c-0.2,0-0.4,0-0.6-0.1
			c-0.2,0.1-0.3,0.2-0.3,0.3c0,0.1,0.1,0.2,0.2,0.3c0.1,0.1,0.3,0.1,0.5,0.1c0.2,0,0.4,0,0.6,0c0.2,0,0.5,0,0.7,0
			c0.2,0,0.5,0.1,0.7,0.1c0.2,0.1,0.5,0.1,0.6,0.2c0.2,0.1,0.3,0.3,0.5,0.5s0.2,0.4,0.2,0.7c0,0.3-0.1,0.5-0.2,0.8
			c-0.1,0.3-0.3,0.5-0.6,0.7s-0.6,0.4-1,0.5s-0.8,0.2-1.3,0.2c-0.5,0-0.9,0-1.2-0.1c-0.4-0.1-0.6-0.2-0.9-0.4
			c-0.2-0.2-0.4-0.3-0.5-0.5c-0.1-0.2-0.2-0.4-0.2-0.6c0-0.3,0.1-0.5,0.3-0.7c0.2-0.2,0.4-0.3,0.7-0.5c-0.2-0.1-0.3-0.2-0.4-0.3
			s-0.1-0.3-0.1-0.6c0-0.2,0.1-0.4,0.2-0.6c0.1-0.2,0.3-0.4,0.6-0.5c-0.3-0.2-0.6-0.4-0.8-0.7c-0.2-0.3-0.3-0.6-0.3-1
			c0-0.3,0.1-0.6,0.2-0.8s0.3-0.5,0.5-0.6c0.2-0.2,0.5-0.3,0.8-0.4c0.3-0.1,0.6-0.1,1-0.1c0.5,0,1,0.1,1.4,0.3H78.6z M76.9,104.8
			c0-0.1,0-0.2-0.1-0.3c-0.1-0.1-0.2-0.1-0.3-0.2c-0.1,0-0.2-0.1-0.4-0.1c-0.2,0-0.3,0-0.5,0c-0.2,0-0.4,0-0.5,0c-0.2,0-0.4,0-0.6,0
			c-0.1,0.1-0.3,0.2-0.3,0.3c-0.1,0.1-0.1,0.2-0.1,0.4c0,0.1,0,0.2,0.1,0.3s0.1,0.2,0.2,0.2c0.1,0.1,0.2,0.1,0.4,0.1
			c0.2,0,0.4,0.1,0.7,0.1c0.3,0,0.5,0,0.7-0.1c0.2,0,0.3-0.1,0.5-0.2c0.1-0.1,0.2-0.1,0.2-0.2C76.9,105,76.9,104.9,76.9,104.8z
			 M75.4,101.2c0.3,0,0.6-0.1,0.8-0.3s0.2-0.4,0.2-0.7c0-0.3-0.1-0.5-0.2-0.7s-0.4-0.2-0.8-0.2s-0.6,0.1-0.8,0.2
			c-0.2,0.2-0.2,0.4-0.2,0.7c0,0.3,0.1,0.5,0.2,0.7S75,101.2,75.4,101.2z"/>
		<path class="st3" d="M81.3,101.7c0.1,0.6,0.2,1,0.5,1.3s0.6,0.4,1.1,0.4c0.2,0,0.4,0,0.6-0.1c0.2-0.1,0.3-0.1,0.4-0.2
			c0.1-0.1,0.2-0.1,0.3-0.2s0.2-0.1,0.3-0.1c0.1,0,0.2,0,0.3,0.1l0.5,0.6c-0.2,0.2-0.4,0.4-0.6,0.5c-0.2,0.1-0.4,0.2-0.7,0.3
			c-0.2,0.1-0.5,0.1-0.7,0.2c-0.2,0-0.5,0-0.7,0c-0.4,0-0.8-0.1-1.2-0.2s-0.7-0.4-1-0.6s-0.5-0.6-0.7-1c-0.2-0.4-0.2-0.9-0.2-1.4
			c0-0.4,0.1-0.8,0.2-1.2c0.1-0.4,0.3-0.7,0.6-1c0.3-0.3,0.6-0.5,0.9-0.7c0.4-0.2,0.8-0.2,1.3-0.2c0.4,0,0.8,0.1,1.1,0.2
			c0.3,0.1,0.6,0.3,0.9,0.5c0.2,0.2,0.4,0.5,0.6,0.9c0.1,0.4,0.2,0.7,0.2,1.2c0,0.1,0,0.2,0,0.3c0,0.1,0,0.1-0.1,0.2
			c0,0-0.1,0.1-0.1,0.1c0,0-0.1,0-0.2,0H81.3z M83.9,100.7c0-0.2,0-0.3-0.1-0.5c0-0.2-0.1-0.3-0.2-0.4c-0.1-0.1-0.2-0.2-0.4-0.3
			c-0.2-0.1-0.3-0.1-0.5-0.1c-0.4,0-0.7,0.1-0.9,0.3c-0.2,0.2-0.4,0.5-0.4,1H83.9z"/>
		<path class="st3" d="M94.5,99.6c0,0.1-0.1,0.1-0.1,0.1c0,0-0.1,0-0.2,0s-0.2,0-0.2-0.1c-0.1,0-0.2-0.1-0.3-0.1
			c-0.1,0-0.2-0.1-0.4-0.1c-0.1,0-0.3-0.1-0.5-0.1c-0.3,0-0.5,0.1-0.6,0.2c-0.1,0.1-0.2,0.3-0.2,0.4c0,0.1,0,0.2,0.1,0.3
			s0.2,0.2,0.3,0.2c0.1,0.1,0.3,0.1,0.5,0.2c0.2,0.1,0.4,0.1,0.5,0.2c0.2,0.1,0.4,0.1,0.5,0.2c0.2,0.1,0.3,0.2,0.5,0.3
			s0.2,0.3,0.3,0.5c0.1,0.2,0.1,0.4,0.1,0.6c0,0.3-0.1,0.6-0.2,0.8s-0.3,0.5-0.5,0.7c-0.2,0.2-0.5,0.3-0.8,0.4
			c-0.3,0.1-0.7,0.2-1.1,0.2c-0.2,0-0.4,0-0.6-0.1s-0.4-0.1-0.6-0.2c-0.2-0.1-0.4-0.2-0.5-0.2c-0.2-0.1-0.3-0.2-0.4-0.3l0.4-0.6
			c0-0.1,0.1-0.1,0.2-0.2c0.1,0,0.2-0.1,0.3-0.1c0.1,0,0.2,0,0.3,0.1c0.1,0.1,0.2,0.1,0.3,0.2c0.1,0.1,0.2,0.1,0.4,0.2
			c0.1,0,0.3,0.1,0.5,0.1c0.2,0,0.3,0,0.4-0.1c0.1,0,0.2-0.1,0.3-0.1s0.1-0.1,0.2-0.2c0-0.1,0.1-0.2,0.1-0.2c0-0.1,0-0.2-0.1-0.3
			s-0.2-0.2-0.3-0.2c-0.1-0.1-0.3-0.1-0.5-0.2c-0.2-0.1-0.4-0.1-0.5-0.2c-0.2-0.1-0.4-0.1-0.5-0.2c-0.2-0.1-0.3-0.2-0.5-0.3
			c-0.1-0.1-0.2-0.3-0.3-0.5c-0.1-0.2-0.1-0.4-0.1-0.7c0-0.3,0-0.5,0.1-0.7c0.1-0.2,0.2-0.4,0.5-0.6c0.2-0.2,0.4-0.3,0.7-0.4
			s0.6-0.2,1-0.2c0.4,0,0.8,0.1,1.2,0.2c0.4,0.1,0.7,0.3,0.9,0.6L94.5,99.6z"/>
		<path class="st3" d="M97.9,101.7c0.1,0.6,0.2,1,0.5,1.3s0.6,0.4,1.1,0.4c0.2,0,0.4,0,0.6-0.1c0.2-0.1,0.3-0.1,0.4-0.2
			c0.1-0.1,0.2-0.1,0.3-0.2s0.2-0.1,0.3-0.1c0.1,0,0.2,0,0.3,0.1l0.5,0.6c-0.2,0.2-0.4,0.4-0.6,0.5c-0.2,0.1-0.4,0.2-0.7,0.3
			c-0.2,0.1-0.5,0.1-0.7,0.2c-0.2,0-0.5,0-0.7,0c-0.4,0-0.8-0.1-1.2-0.2s-0.7-0.4-1-0.6s-0.5-0.6-0.7-1c-0.2-0.4-0.2-0.9-0.2-1.4
			c0-0.4,0.1-0.8,0.2-1.2c0.1-0.4,0.3-0.7,0.6-1c0.3-0.3,0.6-0.5,0.9-0.7c0.4-0.2,0.8-0.2,1.3-0.2c0.4,0,0.8,0.1,1.1,0.2
			c0.3,0.1,0.6,0.3,0.9,0.5c0.2,0.2,0.4,0.5,0.6,0.9c0.1,0.4,0.2,0.7,0.2,1.2c0,0.1,0,0.2,0,0.3c0,0.1,0,0.1-0.1,0.2
			c0,0-0.1,0.1-0.1,0.1c0,0-0.1,0-0.2,0H97.9z M100.5,100.7c0-0.2,0-0.3-0.1-0.5c0-0.2-0.1-0.3-0.2-0.4c-0.1-0.1-0.2-0.2-0.4-0.3
			c-0.2-0.1-0.3-0.1-0.5-0.1c-0.4,0-0.7,0.1-0.9,0.3c-0.2,0.2-0.4,0.5-0.4,1H100.5z"/>
		<path class="st3" d="M113.9,104.6h-1.6v-5h-2.6v3.2c0,0.2,0,0.3,0.1,0.4c0.1,0.1,0.2,0.1,0.3,0.1c0.1,0,0.1,0,0.2,0
			c0.1,0,0.1,0,0.1-0.1c0,0,0.1,0,0.1-0.1s0.1,0,0.1,0c0,0,0.1,0,0.1,0c0,0,0.1,0.1,0.1,0.1l0.5,0.8c-0.2,0.2-0.5,0.3-0.8,0.4
			s-0.6,0.1-0.9,0.1c-0.3,0-0.5,0-0.7-0.1s-0.4-0.2-0.5-0.4c-0.1-0.2-0.3-0.3-0.3-0.6c-0.1-0.2-0.1-0.5-0.1-0.7v-3.3h-2.4v3.2
			c0,0.2,0,0.3,0.1,0.4c0.1,0.1,0.2,0.1,0.4,0.1c0.1,0,0.1,0,0.2,0c0.1,0,0.1,0,0.1-0.1s0.1,0,0.1-0.1s0.1,0,0.1,0c0,0,0.1,0,0.1,0
			c0,0,0.1,0.1,0.1,0.1l0.5,0.8c-0.2,0.2-0.5,0.3-0.8,0.4s-0.6,0.1-0.9,0.1c-0.3,0-0.5,0-0.7-0.1s-0.4-0.2-0.5-0.4
			c-0.1-0.2-0.3-0.3-0.3-0.6c-0.1-0.2-0.1-0.5-0.1-0.7v-3.3h-0.6c-0.1,0-0.2,0-0.2-0.1c-0.1-0.1-0.1-0.1-0.1-0.3v-0.6l1-0.2l0.3-1.6
			c0-0.2,0.2-0.3,0.4-0.3h0.9v1.9h2.4l0.3-1.6c0-0.2,0.2-0.3,0.4-0.3h0.9v1.9h4.3V104.6z M114.2,96.6c0,0.1,0,0.3-0.1,0.4
			c-0.1,0.1-0.1,0.2-0.2,0.3c-0.1,0.1-0.2,0.2-0.3,0.2c-0.1,0.1-0.3,0.1-0.4,0.1c-0.1,0-0.3,0-0.4-0.1c-0.1-0.1-0.2-0.1-0.3-0.2
			s-0.2-0.2-0.2-0.3c-0.1-0.1-0.1-0.3-0.1-0.4c0-0.1,0-0.3,0.1-0.4c0.1-0.1,0.1-0.2,0.2-0.3c0.1-0.1,0.2-0.2,0.3-0.2
			c0.1-0.1,0.3-0.1,0.4-0.1c0.1,0,0.3,0,0.4,0.1c0.1,0.1,0.2,0.1,0.3,0.2c0.1,0.1,0.2,0.2,0.2,0.3C114.1,96.3,114.2,96.5,114.2,96.6
			z"/>
		<path class="st3" d="M117.6,99.1c0.1-0.1,0.3-0.2,0.4-0.3c0.1-0.1,0.3-0.2,0.4-0.3c0.1-0.1,0.3-0.1,0.5-0.2c0.2,0,0.4-0.1,0.6-0.1
			c0.3,0,0.6,0.1,0.9,0.2c0.3,0.1,0.5,0.3,0.7,0.5s0.3,0.5,0.4,0.7s0.1,0.6,0.1,0.9v3.9h-1.6v-3.9c0-0.3-0.1-0.6-0.2-0.8
			s-0.4-0.3-0.7-0.3c-0.2,0-0.5,0.1-0.7,0.1c-0.2,0.1-0.4,0.2-0.6,0.4v4.4H116v-6.2h1c0.2,0,0.3,0.1,0.4,0.3L117.6,99.1z"/>
		<path class="st3" d="M129,98.6v0.6c0,0.1,0,0.2-0.1,0.2s-0.1,0.1-0.3,0.1l-0.5,0.1c0.1,0.2,0.1,0.4,0.1,0.6c0,0.3-0.1,0.6-0.2,0.8
			c-0.1,0.2-0.3,0.5-0.5,0.6c-0.2,0.2-0.5,0.3-0.8,0.4c-0.3,0.1-0.6,0.1-1,0.1c-0.2,0-0.4,0-0.6-0.1c-0.2,0.1-0.3,0.2-0.3,0.3
			c0,0.1,0.1,0.2,0.2,0.3c0.1,0.1,0.3,0.1,0.5,0.1c0.2,0,0.4,0,0.6,0c0.2,0,0.5,0,0.7,0c0.2,0,0.5,0.1,0.7,0.1
			c0.2,0.1,0.5,0.1,0.6,0.2c0.2,0.1,0.3,0.3,0.5,0.5s0.2,0.4,0.2,0.7c0,0.3-0.1,0.5-0.2,0.8c-0.1,0.3-0.3,0.5-0.6,0.7
			c-0.3,0.2-0.6,0.4-1,0.5s-0.8,0.2-1.3,0.2c-0.5,0-0.9,0-1.2-0.1c-0.4-0.1-0.6-0.2-0.9-0.4c-0.2-0.2-0.4-0.3-0.5-0.5
			c-0.1-0.2-0.2-0.4-0.2-0.6c0-0.3,0.1-0.5,0.3-0.7c0.2-0.2,0.4-0.3,0.7-0.5c-0.2-0.1-0.3-0.2-0.4-0.3s-0.1-0.3-0.1-0.6
			c0-0.2,0.1-0.4,0.2-0.6c0.1-0.2,0.3-0.4,0.6-0.5c-0.3-0.2-0.6-0.4-0.8-0.7c-0.2-0.3-0.3-0.6-0.3-1c0-0.3,0.1-0.6,0.2-0.8
			s0.3-0.5,0.5-0.6c0.2-0.2,0.5-0.3,0.8-0.4c0.3-0.1,0.6-0.1,1-0.1c0.5,0,1,0.1,1.4,0.3H129z M127.3,104.8c0-0.1,0-0.2-0.1-0.3
			c-0.1-0.1-0.2-0.1-0.3-0.2c-0.1,0-0.2-0.1-0.4-0.1c-0.2,0-0.3,0-0.5,0c-0.2,0-0.4,0-0.5,0c-0.2,0-0.4,0-0.6,0
			c-0.1,0.1-0.3,0.2-0.3,0.3c-0.1,0.1-0.1,0.2-0.1,0.4c0,0.1,0,0.2,0.1,0.3s0.1,0.2,0.2,0.2c0.1,0.1,0.2,0.1,0.4,0.1
			c0.2,0,0.4,0.1,0.7,0.1c0.3,0,0.5,0,0.7-0.1c0.2,0,0.3-0.1,0.5-0.2c0.1-0.1,0.2-0.1,0.2-0.2C127.3,105,127.3,104.9,127.3,104.8z
			 M125.8,101.2c0.3,0,0.6-0.1,0.8-0.3s0.2-0.4,0.2-0.7c0-0.3-0.1-0.5-0.2-0.7s-0.4-0.2-0.8-0.2s-0.6,0.1-0.8,0.2
			c-0.2,0.2-0.2,0.4-0.2,0.7c0,0.3,0.1,0.5,0.2,0.7S125.4,101.2,125.8,101.2z"/>
		<path class="st3" d="M134.4,99.6c0,0.1-0.1,0.1-0.1,0.1c0,0-0.1,0-0.2,0s-0.2,0-0.2-0.1c-0.1,0-0.2-0.1-0.3-0.1
			c-0.1,0-0.2-0.1-0.4-0.1c-0.1,0-0.3-0.1-0.5-0.1c-0.3,0-0.5,0.1-0.6,0.2c-0.1,0.1-0.2,0.3-0.2,0.4c0,0.1,0,0.2,0.1,0.3
			s0.2,0.2,0.3,0.2c0.1,0.1,0.3,0.1,0.5,0.2c0.2,0.1,0.4,0.1,0.5,0.2c0.2,0.1,0.4,0.1,0.5,0.2c0.2,0.1,0.3,0.2,0.5,0.3
			s0.2,0.3,0.3,0.5c0.1,0.2,0.1,0.4,0.1,0.6c0,0.3-0.1,0.6-0.2,0.8s-0.3,0.5-0.5,0.7c-0.2,0.2-0.5,0.3-0.8,0.4
			c-0.3,0.1-0.7,0.2-1.1,0.2c-0.2,0-0.4,0-0.6-0.1s-0.4-0.1-0.6-0.2c-0.2-0.1-0.4-0.2-0.5-0.2c-0.2-0.1-0.3-0.2-0.4-0.3l0.4-0.6
			c0-0.1,0.1-0.1,0.2-0.2c0.1,0,0.2-0.1,0.3-0.1c0.1,0,0.2,0,0.3,0.1c0.1,0.1,0.2,0.1,0.3,0.2c0.1,0.1,0.2,0.1,0.4,0.2
			c0.1,0,0.3,0.1,0.5,0.1c0.2,0,0.3,0,0.4-0.1c0.1,0,0.2-0.1,0.3-0.1s0.1-0.1,0.2-0.2c0-0.1,0.1-0.2,0.1-0.2c0-0.1,0-0.2-0.1-0.3
			s-0.2-0.2-0.3-0.2c-0.1-0.1-0.3-0.1-0.5-0.2c-0.2-0.1-0.4-0.1-0.5-0.2c-0.2-0.1-0.4-0.1-0.5-0.2c-0.2-0.1-0.3-0.2-0.5-0.3
			c-0.1-0.1-0.2-0.3-0.3-0.5c-0.1-0.2-0.1-0.4-0.1-0.7c0-0.3,0-0.5,0.1-0.7c0.1-0.2,0.2-0.4,0.5-0.6c0.2-0.2,0.4-0.3,0.7-0.4
			s0.6-0.2,1-0.2c0.4,0,0.8,0.1,1.2,0.2c0.4,0.1,0.7,0.3,0.9,0.6L134.4,99.6z"/>
	</g>
</g>
</svg>
