<?xml version="1.0" encoding="utf-8"?>
<!-- Generator: Adobe Illustrator 21.1.0, SVG Export Plug-In . SVG Version: 6.00 Build 0)  -->
<svg version="1.1" id="Layer_1" xmlns="http://www.w3.org/2000/svg" xmlns:xlink="http://www.w3.org/1999/xlink" x="0px" y="0px"
	 viewBox="0 0 180 120" style="enable-background:new 0 0 180 120;" xml:space="preserve">
<style type="text/css">
	.st0{fill:#BFCDD7;}
	.st1{fill:url(#SVGID_1_);}
	.st2{fill:#4F748C;}
	.st3{fill:#FFFFFF;}
	.st4{fill:url(#SVGID_2_);}
	.st5{fill:url(#SVGID_3_);}
</style>
<g>
	<g>
		<path class="st0" d="M164.2,120H15.8C7.1,120,0,112.9,0,104.2V15.8C0,7.1,7.1,0,15.8,0h148.3c8.7,0,15.8,7.1,15.8,15.8v88.3
			C180,112.9,172.9,120,164.2,120z"/>
		<linearGradient id="SVGID_1_" gradientUnits="userSpaceOnUse" x1="86.7777" y1="50.7177" x2="168.6908" y2="133.4407">
			<stop  offset="0" style="stop-color:#7290A3"/>
			<stop  offset="0.2183" style="stop-color:#7D98AA"/>
			<stop  offset="0.6015" style="stop-color:#9AB0BE"/>
			<stop  offset="1" style="stop-color:#BFCDD7"/>
		</linearGradient>
		<path class="st1" d="M115.7,28.8l-4.5-2.3L64.1,78.1l40.7,41.9h59.4c8.7,0,15.8-7.1,15.8-15.8v-8.3L115.7,28.8z"/>
		<g>
			<circle class="st2" cx="90" cy="53" r="36"/>
		</g>
		<g>
			<path class="st3" d="M93.2,49.9c0.8,0.2,1.5,0.5,2.3,0.7c0.8,0.3,1.5,0.6,2.2,0.9c0.7,0.3,1.4,0.7,2,1.2c0.6,0.4,1.1,1,1.6,1.6
				c0.5,0.6,0.8,1.3,1.1,2.1c0.3,0.8,0.4,1.7,0.4,2.7c0,1.5-0.3,2.9-0.8,4.2c-0.5,1.3-1.3,2.5-2.2,3.5c-1,1-2.2,1.9-3.6,2.5
				s-3.1,1-4.9,1.2l-0.3,2.9c0,0.4-0.2,0.8-0.6,1.2C90,75,89.5,75.2,89,75.2h-2.7l0.5-4.9c-1.8-0.3-3.6-0.8-5.2-1.6
				c-1.7-0.8-3.1-1.7-4.2-2.7l2.3-3.3c0.2-0.3,0.4-0.5,0.8-0.7c0.3-0.2,0.7-0.3,1-0.3c0.4,0,0.8,0.1,1.2,0.3
				c0.4,0.2,0.8,0.4,1.3,0.7c0.5,0.3,1,0.6,1.5,0.9c0.6,0.3,1.2,0.5,1.9,0.7l0.9-9c-1.1-0.3-2.3-0.7-3.4-1.1c-1.1-0.4-2.2-1-3.1-1.7
				c-0.9-0.7-1.6-1.7-2.2-2.8c-0.6-1.1-0.8-2.5-0.8-4.2c0-1.3,0.3-2.5,0.8-3.7c0.5-1.2,1.2-2.3,2.2-3.2c1-1,2.2-1.7,3.6-2.3
				c1.4-0.6,3.1-1,4.9-1.1l0.3-2.6c0-0.4,0.2-0.8,0.6-1.2c0.4-0.4,0.8-0.5,1.4-0.5h2.7l-0.5,4.7c1.7,0.3,3.2,0.8,4.4,1.5
				c1.2,0.7,2.3,1.5,3.1,2.3l-1.8,2.6c-0.3,0.4-0.5,0.7-0.8,0.9c-0.3,0.2-0.6,0.3-1,0.3c-0.2,0-0.5-0.1-0.8-0.2
				c-0.3-0.1-0.7-0.3-1.1-0.4c-0.4-0.2-0.8-0.3-1.2-0.5c-0.4-0.2-0.9-0.3-1.4-0.5L93.2,49.9z M89.6,41.3c-0.7,0.1-1.3,0.3-1.8,0.5
				c-0.5,0.2-0.9,0.5-1.2,0.8c-0.3,0.3-0.5,0.6-0.7,1c-0.1,0.4-0.2,0.8-0.2,1.2c0,0.9,0.3,1.7,0.9,2.3c0.6,0.6,1.4,1.1,2.3,1.5
				L89.6,41.3z M91.8,64.4c2.6-0.4,3.9-1.9,3.9-4.3c0-0.9-0.3-1.6-0.9-2.2c-0.6-0.5-1.3-1-2.3-1.3L91.8,64.4z"/>
		</g>
	</g>
	<g>
		<path class="st3" d="M63.5,99.2c0.1-0.1,0.3-0.3,0.4-0.4c0.1-0.1,0.3-0.2,0.5-0.3s0.3-0.1,0.5-0.2c0.2,0,0.4-0.1,0.6-0.1
			c0.3,0,0.6,0.1,0.9,0.2c0.3,0.1,0.5,0.3,0.7,0.6s0.4,0.6,0.5,1c0.1,0.4,0.2,0.8,0.2,1.3c0,0.5-0.1,0.9-0.2,1.3s-0.3,0.7-0.5,1
			c-0.2,0.3-0.5,0.5-0.8,0.7c-0.3,0.2-0.7,0.2-1.1,0.2c-0.3,0-0.6,0-0.9-0.1c-0.2-0.1-0.4-0.2-0.6-0.4v2.5h-1.7v-8.2h1
			c0.2,0,0.3,0.1,0.4,0.3L63.5,99.2z M63.5,102.9c0.2,0.2,0.3,0.3,0.5,0.4c0.2,0.1,0.4,0.1,0.6,0.1c0.2,0,0.4,0,0.5-0.1
			c0.2-0.1,0.3-0.2,0.4-0.4c0.1-0.2,0.2-0.4,0.3-0.6c0.1-0.3,0.1-0.6,0.1-0.9c0-0.3,0-0.6-0.1-0.9c-0.1-0.2-0.1-0.4-0.2-0.6
			c-0.1-0.1-0.2-0.3-0.4-0.3c-0.1-0.1-0.3-0.1-0.5-0.1c-0.3,0-0.5,0.1-0.7,0.2c-0.2,0.1-0.4,0.3-0.6,0.5V102.9z"/>
		<path class="st3" d="M69.3,99.2c0.4-0.3,0.8-0.6,1.2-0.7s0.9-0.2,1.4-0.2c0.4,0,0.7,0.1,1,0.2s0.5,0.3,0.7,0.5s0.4,0.5,0.5,0.8
			c0.1,0.3,0.2,0.6,0.2,1v3.9h-0.8c-0.2,0-0.3,0-0.4-0.1s-0.1-0.1-0.2-0.3l-0.1-0.4c-0.2,0.1-0.3,0.3-0.5,0.4
			c-0.1,0.1-0.3,0.2-0.5,0.3c-0.2,0.1-0.3,0.1-0.5,0.2c-0.2,0-0.4,0.1-0.6,0.1c-0.3,0-0.5,0-0.7-0.1c-0.2-0.1-0.4-0.2-0.6-0.3
			s-0.3-0.3-0.4-0.5c-0.1-0.2-0.1-0.5-0.1-0.7c0-0.2,0.1-0.5,0.2-0.7s0.3-0.4,0.6-0.6c0.3-0.2,0.7-0.3,1.1-0.5
			c0.5-0.1,1.1-0.2,1.8-0.2v-0.3c0-0.4-0.1-0.7-0.2-0.9c-0.2-0.2-0.4-0.3-0.7-0.3c-0.2,0-0.4,0-0.6,0.1c-0.2,0.1-0.3,0.1-0.4,0.2
			c-0.1,0.1-0.2,0.1-0.3,0.2c-0.1,0.1-0.2,0.1-0.3,0.1c-0.1,0-0.2,0-0.3-0.1c-0.1-0.1-0.1-0.1-0.2-0.2L69.3,99.2z M72.6,102
			c-0.4,0-0.7,0.1-1,0.1c-0.3,0-0.5,0.1-0.6,0.2c-0.2,0.1-0.3,0.2-0.3,0.3c-0.1,0.1-0.1,0.2-0.1,0.3c0,0.2,0.1,0.4,0.2,0.5
			s0.3,0.1,0.6,0.1c0.3,0,0.5,0,0.7-0.1c0.2-0.1,0.4-0.3,0.6-0.5V102z"/>
		<path class="st3" d="M81.8,98.4l-3.3,7.8c-0.1,0.1-0.1,0.2-0.2,0.3c-0.1,0.1-0.2,0.1-0.4,0.1h-1.2l1.2-2.5l-2.5-5.7h1.5
			c0.1,0,0.2,0,0.3,0.1c0.1,0.1,0.1,0.1,0.2,0.2l1.2,3c0,0.1,0.1,0.2,0.1,0.4c0,0.1,0.1,0.2,0.1,0.4c0.1-0.2,0.2-0.5,0.2-0.7l1.1-3
			c0-0.1,0.1-0.2,0.2-0.2s0.2-0.1,0.3-0.1H81.8z"/>
		<path class="st3" d="M83.1,104.6v-6.2h1c0.2,0,0.3,0.1,0.4,0.3l0.1,0.4c0.1-0.1,0.2-0.2,0.3-0.3c0.1-0.1,0.2-0.2,0.4-0.2
			c0.1-0.1,0.3-0.1,0.4-0.2c0.2,0,0.3-0.1,0.5-0.1c0.4,0,0.7,0.1,0.9,0.3s0.4,0.5,0.6,0.8c0.1-0.2,0.2-0.4,0.4-0.5
			c0.1-0.1,0.3-0.3,0.5-0.3s0.4-0.2,0.6-0.2c0.2,0,0.4-0.1,0.6-0.1c0.3,0,0.7,0.1,0.9,0.2c0.3,0.1,0.5,0.3,0.7,0.5
			c0.2,0.2,0.3,0.4,0.4,0.7c0.1,0.3,0.1,0.6,0.1,1v3.9h-1.7v-3.9c0-0.7-0.3-1.1-0.9-1.1c-0.1,0-0.3,0-0.4,0.1
			c-0.1,0-0.2,0.1-0.3,0.2c-0.1,0.1-0.2,0.2-0.2,0.3c0,0.1-0.1,0.3-0.1,0.5v3.9h-1.7v-3.9c0-0.4-0.1-0.7-0.2-0.8s-0.4-0.2-0.7-0.2
			c-0.2,0-0.4,0-0.5,0.1c-0.2,0.1-0.3,0.2-0.5,0.4v4.5H83.1z"/>
		<path class="st3" d="M95.2,101.7c0.1,0.6,0.2,1,0.5,1.3s0.6,0.4,1.1,0.4c0.2,0,0.4,0,0.6-0.1c0.2-0.1,0.3-0.1,0.4-0.2
			c0.1-0.1,0.2-0.1,0.3-0.2s0.2-0.1,0.3-0.1c0.1,0,0.2,0,0.3,0.1l0.5,0.6c-0.2,0.2-0.4,0.4-0.6,0.5c-0.2,0.1-0.4,0.2-0.7,0.3
			c-0.2,0.1-0.5,0.1-0.7,0.2c-0.2,0-0.5,0-0.7,0c-0.4,0-0.8-0.1-1.2-0.2s-0.7-0.4-1-0.6s-0.5-0.6-0.7-1c-0.2-0.4-0.2-0.9-0.2-1.4
			c0-0.4,0.1-0.8,0.2-1.2c0.1-0.4,0.3-0.7,0.6-1c0.3-0.3,0.6-0.5,0.9-0.7c0.4-0.2,0.8-0.2,1.3-0.2c0.4,0,0.8,0.1,1.1,0.2
			c0.3,0.1,0.6,0.3,0.9,0.5c0.2,0.2,0.4,0.5,0.6,0.9c0.1,0.4,0.2,0.7,0.2,1.2c0,0.1,0,0.2,0,0.3c0,0.1,0,0.1-0.1,0.2
			c0,0-0.1,0.1-0.1,0.1c0,0-0.1,0-0.2,0H95.2z M97.8,100.7c0-0.2,0-0.3-0.1-0.5c0-0.2-0.1-0.3-0.2-0.4c-0.1-0.1-0.2-0.2-0.4-0.3
			c-0.2-0.1-0.3-0.1-0.5-0.1c-0.4,0-0.7,0.1-0.9,0.3c-0.2,0.2-0.4,0.5-0.4,1H97.8z"/>
		<path class="st3" d="M102.5,99.1c0.1-0.1,0.3-0.2,0.4-0.3c0.1-0.1,0.3-0.2,0.4-0.3c0.1-0.1,0.3-0.1,0.5-0.2c0.2,0,0.4-0.1,0.6-0.1
			c0.3,0,0.6,0.1,0.9,0.2c0.3,0.1,0.5,0.3,0.7,0.5s0.3,0.5,0.4,0.7s0.1,0.6,0.1,0.9v3.9h-1.6v-3.9c0-0.3-0.1-0.6-0.2-0.8
			s-0.4-0.3-0.7-0.3c-0.2,0-0.5,0.1-0.7,0.1c-0.2,0.1-0.4,0.2-0.6,0.4v4.4h-1.7v-6.2h1c0.2,0,0.3,0.1,0.4,0.3L102.5,99.1z"/>
		<path class="st3" d="M110.5,104.7c-0.3,0-0.5,0-0.7-0.1s-0.4-0.2-0.5-0.4c-0.1-0.2-0.3-0.3-0.3-0.6c-0.1-0.2-0.1-0.5-0.1-0.7v-3.3
			h-0.6c-0.1,0-0.2,0-0.2-0.1c-0.1-0.1-0.1-0.1-0.1-0.3v-0.6l1-0.2l0.3-1.6c0-0.2,0.2-0.3,0.4-0.3h0.9v1.9h1.6v1.2h-1.6v3.2
			c0,0.2,0,0.3,0.1,0.4c0.1,0.1,0.2,0.1,0.4,0.1c0.1,0,0.1,0,0.2,0c0.1,0,0.1,0,0.1-0.1s0.1,0,0.1-0.1s0.1,0,0.1,0c0,0,0.1,0,0.1,0
			c0,0,0.1,0.1,0.1,0.1l0.5,0.8c-0.2,0.2-0.5,0.3-0.8,0.4S110.8,104.7,110.5,104.7z"/>
		<path class="st3" d="M117.4,99.6c0,0.1-0.1,0.1-0.1,0.1c0,0-0.1,0-0.2,0s-0.2,0-0.2-0.1c-0.1,0-0.2-0.1-0.3-0.1
			c-0.1,0-0.2-0.1-0.4-0.1c-0.1,0-0.3-0.1-0.5-0.1c-0.3,0-0.5,0.1-0.6,0.2c-0.1,0.1-0.2,0.3-0.2,0.4c0,0.1,0,0.2,0.1,0.3
			s0.2,0.2,0.3,0.2c0.1,0.1,0.3,0.1,0.5,0.2c0.2,0.1,0.4,0.1,0.5,0.2c0.2,0.1,0.4,0.1,0.5,0.2c0.2,0.1,0.3,0.2,0.5,0.3
			s0.2,0.3,0.3,0.5c0.1,0.2,0.1,0.4,0.1,0.6c0,0.3-0.1,0.6-0.2,0.8s-0.3,0.5-0.5,0.7c-0.2,0.2-0.5,0.3-0.8,0.4
			c-0.3,0.1-0.7,0.2-1.1,0.2c-0.2,0-0.4,0-0.6-0.1s-0.4-0.1-0.6-0.2c-0.2-0.1-0.4-0.2-0.5-0.2c-0.2-0.1-0.3-0.2-0.4-0.3l0.4-0.6
			c0-0.1,0.1-0.1,0.2-0.2c0.1,0,0.2-0.1,0.3-0.1c0.1,0,0.2,0,0.3,0.1c0.1,0.1,0.2,0.1,0.3,0.2c0.1,0.1,0.2,0.1,0.4,0.2
			c0.1,0,0.3,0.1,0.5,0.1c0.2,0,0.3,0,0.4-0.1c0.1,0,0.2-0.1,0.3-0.1s0.1-0.1,0.2-0.2c0-0.1,0.1-0.2,0.1-0.2c0-0.1,0-0.2-0.1-0.3
			s-0.2-0.2-0.3-0.2c-0.1-0.1-0.3-0.1-0.5-0.2c-0.2-0.1-0.4-0.1-0.5-0.2c-0.2-0.1-0.4-0.1-0.5-0.2c-0.2-0.1-0.3-0.2-0.5-0.3
			c-0.1-0.1-0.2-0.3-0.3-0.5c-0.1-0.2-0.1-0.4-0.1-0.7c0-0.3,0-0.5,0.1-0.7c0.1-0.2,0.2-0.4,0.5-0.6c0.2-0.2,0.4-0.3,0.7-0.4
			s0.6-0.2,1-0.2c0.4,0,0.8,0.1,1.2,0.2c0.4,0.1,0.7,0.3,0.9,0.6L117.4,99.6z"/>
	</g>
</g>
</svg>
