<?xml version="1.0" encoding="utf-8"?>
<!-- Generator: Adobe Illustrator 21.1.0, SVG Export Plug-In . SVG Version: 6.00 Build 0)  -->
<svg version="1.1" id="Layer_1" xmlns="http://www.w3.org/2000/svg" xmlns:xlink="http://www.w3.org/1999/xlink" x="0px" y="0px"
	 viewBox="0 0 180 120" style="enable-background:new 0 0 180 120;" xml:space="preserve">
<style type="text/css">
	.st0{fill:#BFCDD7;}
	.st1{fill:url(#SVGID_1_);}
	.st2{fill:#4F748C;}
	.st3{fill:#FFFFFF;}
	.st4{fill:url(#SVGID_2_);}
	.st5{fill:url(#SVGID_3_);}
</style>
<g>
	<g>
		<path class="st0" d="M164.2,120H15.8C7.1,120,0,112.9,0,104.2V15.8C0,7.1,7.1,0,15.8,0h148.3c8.7,0,15.8,7.1,15.8,15.8v88.3
			C180,112.9,172.9,120,164.2,120z"/>
		<linearGradient id="SVGID_1_" gradientUnits="userSpaceOnUse" x1="86.7777" y1="50.7177" x2="168.6908" y2="133.4407">
			<stop  offset="0" style="stop-color:#7290A3"/>
			<stop  offset="0.2183" style="stop-color:#7D98AA"/>
			<stop  offset="0.6015" style="stop-color:#9AB0BE"/>
			<stop  offset="1" style="stop-color:#BFCDD7"/>
		</linearGradient>
		<path class="st1" d="M115.7,28.8l-4.5-2.3L64.1,78.1l40.7,41.9h59.4c8.7,0,15.8-7.1,15.8-15.8v-8.3L115.7,28.8z"/>
		<g>
			<circle class="st2" cx="90" cy="53" r="36"/>
			<g>
				<circle class="st3" cx="90" cy="42.2" r="8.6"/>
				<path class="st3" d="M76.6,70.1h26.8c0.9,0,1.6-0.7,1.6-1.6v-7.1c0-5.2-2.6-9.9-6.9-12.6c-2,2.4-4.9,3.8-8,3.8s-6.1-1.4-8-3.8
					c-4.3,2.8-6.9,7.5-6.9,12.6v7.1C75,69.4,75.7,70.1,76.6,70.1z"/>
			</g>
		</g>
	</g>
	<g>
		<path class="st3" d="M61.2,98.4l-2.4,6.2h-1.5l-2.4-6.2h1.4c0.1,0,0.2,0,0.3,0.1c0.1,0.1,0.1,0.1,0.2,0.2l1,3.1
			c0.1,0.2,0.1,0.4,0.2,0.6c0.1,0.2,0.1,0.4,0.1,0.6c0-0.2,0.1-0.4,0.1-0.6c0.1-0.2,0.1-0.4,0.2-0.6l1.1-3.1c0-0.1,0.1-0.2,0.2-0.2
			s0.2-0.1,0.3-0.1H61.2z"/>
		<path class="st3" d="M64.5,96.6c0,0.1,0,0.3-0.1,0.4c-0.1,0.1-0.1,0.2-0.2,0.3c-0.1,0.1-0.2,0.2-0.3,0.2c-0.1,0.1-0.3,0.1-0.4,0.1
			c-0.1,0-0.3,0-0.4-0.1c-0.1-0.1-0.2-0.1-0.3-0.2c-0.1-0.1-0.2-0.2-0.2-0.3c-0.1-0.1-0.1-0.2-0.1-0.4s0-0.3,0.1-0.4
			c0.1-0.1,0.1-0.2,0.2-0.3c0.1-0.1,0.2-0.2,0.3-0.2c0.1-0.1,0.3-0.1,0.4-0.1c0.1,0,0.3,0,0.4,0.1c0.1,0.1,0.2,0.1,0.3,0.2
			c0.1,0.1,0.2,0.2,0.2,0.3S64.5,96.5,64.5,96.6z M64.3,98.4v6.2h-1.7v-6.2H64.3z"/>
		<path class="st3" d="M67.7,101.7c0.1,0.6,0.2,1,0.5,1.3s0.6,0.4,1.1,0.4c0.2,0,0.4,0,0.6-0.1c0.2-0.1,0.3-0.1,0.4-0.2
			c0.1-0.1,0.2-0.1,0.3-0.2s0.2-0.1,0.3-0.1c0.1,0,0.2,0,0.3,0.1l0.5,0.6c-0.2,0.2-0.4,0.4-0.6,0.5c-0.2,0.1-0.4,0.2-0.7,0.3
			c-0.2,0.1-0.5,0.1-0.7,0.2c-0.2,0-0.5,0-0.7,0c-0.4,0-0.8-0.1-1.2-0.2s-0.7-0.4-1-0.6s-0.5-0.6-0.7-1c-0.2-0.4-0.2-0.9-0.2-1.4
			c0-0.4,0.1-0.8,0.2-1.2c0.1-0.4,0.3-0.7,0.6-1c0.3-0.3,0.6-0.5,0.9-0.7c0.4-0.2,0.8-0.2,1.3-0.2c0.4,0,0.8,0.1,1.1,0.2
			c0.3,0.1,0.6,0.3,0.9,0.5c0.2,0.2,0.4,0.5,0.6,0.9c0.1,0.4,0.2,0.7,0.2,1.2c0,0.1,0,0.2,0,0.3c0,0.1,0,0.1-0.1,0.2
			c0,0-0.1,0.1-0.1,0.1c0,0-0.1,0-0.2,0H67.7z M70.3,100.7c0-0.2,0-0.3-0.1-0.5c0-0.2-0.1-0.3-0.2-0.4c-0.1-0.1-0.2-0.2-0.4-0.3
			c-0.2-0.1-0.3-0.1-0.5-0.1c-0.4,0-0.7,0.1-0.9,0.3c-0.2,0.2-0.4,0.5-0.4,1H70.3z"/>
		<path class="st3" d="M82.3,98.4l-1.9,6.2h-1.3c-0.1,0-0.1,0-0.2-0.1c-0.1,0-0.1-0.1-0.1-0.2l-1-3.3c0-0.1-0.1-0.3-0.1-0.4
			c0-0.1-0.1-0.3-0.1-0.4c0,0.1-0.1,0.3-0.1,0.4c0,0.1-0.1,0.3-0.1,0.4l-1,3.3c-0.1,0.2-0.2,0.3-0.4,0.3h-1.3l-1.9-6.2h1.3
			c0.1,0,0.2,0,0.3,0.1s0.1,0.1,0.2,0.2l0.8,3.1c0,0.2,0.1,0.4,0.1,0.6s0.1,0.4,0.1,0.5c0-0.2,0.1-0.4,0.2-0.5s0.1-0.4,0.2-0.6
			l0.9-3.1c0-0.1,0.1-0.2,0.2-0.2s0.2-0.1,0.3-0.1H78c0.1,0,0.2,0,0.3,0.1s0.1,0.1,0.2,0.2l0.9,3.1c0.1,0.2,0.1,0.4,0.2,0.6
			c0.1,0.2,0.1,0.4,0.1,0.6c0-0.2,0.1-0.4,0.1-0.6s0.1-0.4,0.1-0.6l0.8-3.1c0-0.1,0.1-0.2,0.2-0.2s0.2-0.1,0.3-0.1H82.3z"/>
		<path class="st3" d="M88.6,99.2c0.1-0.1,0.3-0.3,0.4-0.4c0.1-0.1,0.3-0.2,0.5-0.3s0.3-0.1,0.5-0.2c0.2,0,0.4-0.1,0.6-0.1
			c0.3,0,0.6,0.1,0.9,0.2c0.3,0.1,0.5,0.3,0.7,0.6s0.4,0.6,0.5,1c0.1,0.4,0.2,0.8,0.2,1.3c0,0.5-0.1,0.9-0.2,1.3s-0.3,0.7-0.5,1
			c-0.2,0.3-0.5,0.5-0.8,0.7c-0.3,0.2-0.7,0.2-1.1,0.2c-0.3,0-0.6,0-0.9-0.1c-0.2-0.1-0.4-0.2-0.6-0.4v2.5H87v-8.2h1
			c0.2,0,0.3,0.1,0.4,0.3L88.6,99.2z M88.7,102.9c0.2,0.2,0.3,0.3,0.5,0.4c0.2,0.1,0.4,0.1,0.6,0.1c0.2,0,0.4,0,0.5-0.1
			c0.2-0.1,0.3-0.2,0.4-0.4c0.1-0.2,0.2-0.4,0.3-0.6c0.1-0.3,0.1-0.6,0.1-0.9c0-0.3,0-0.6-0.1-0.9c-0.1-0.2-0.1-0.4-0.2-0.6
			c-0.1-0.1-0.2-0.3-0.4-0.3c-0.1-0.1-0.3-0.1-0.5-0.1c-0.3,0-0.5,0.1-0.7,0.2c-0.2,0.1-0.4,0.3-0.6,0.5V102.9z"/>
		<path class="st3" d="M96.1,99.4c0.2-0.4,0.4-0.6,0.7-0.8s0.6-0.3,0.9-0.3c0.3,0,0.5,0.1,0.7,0.2l-0.1,1.2c0,0.1-0.1,0.1-0.1,0.2
			c0,0-0.1,0-0.2,0c-0.1,0-0.2,0-0.3,0c-0.1,0-0.2,0-0.3,0c-0.2,0-0.3,0-0.4,0.1c-0.1,0-0.2,0.1-0.3,0.2s-0.2,0.2-0.2,0.3
			c-0.1,0.1-0.1,0.2-0.2,0.4v3.8h-1.7v-6.2h1c0.2,0,0.3,0,0.3,0.1c0.1,0.1,0.1,0.2,0.1,0.3L96.1,99.4z"/>
		<path class="st3" d="M102.4,98.3c0.5,0,0.9,0.1,1.3,0.2s0.7,0.4,1,0.6c0.3,0.3,0.5,0.6,0.6,1c0.1,0.4,0.2,0.8,0.2,1.3
			s-0.1,0.9-0.2,1.3c-0.1,0.4-0.4,0.7-0.6,1c-0.3,0.3-0.6,0.5-1,0.6s-0.8,0.2-1.3,0.2c-0.5,0-0.9-0.1-1.3-0.2s-0.7-0.4-1-0.6
			c-0.3-0.3-0.5-0.6-0.6-1s-0.2-0.8-0.2-1.3s0.1-0.9,0.2-1.3c0.2-0.4,0.4-0.7,0.6-1c0.3-0.3,0.6-0.5,1-0.6S101.9,98.3,102.4,98.3z
			 M102.4,103.4c0.5,0,0.8-0.2,1.1-0.5c0.2-0.3,0.3-0.8,0.3-1.5c0-0.6-0.1-1.1-0.3-1.4c-0.2-0.3-0.6-0.5-1.1-0.5
			c-0.5,0-0.8,0.2-1.1,0.5c-0.2,0.3-0.3,0.8-0.3,1.4c0,0.6,0.1,1.1,0.3,1.5C101.5,103.2,101.9,103.4,102.4,103.4z"/>
		<path class="st3" d="M107.5,104.6v-5l-0.5-0.1c-0.1,0-0.2-0.1-0.3-0.1c-0.1-0.1-0.1-0.2-0.1-0.3v-0.7h0.9v-0.1
			c0-0.4,0.1-0.7,0.2-1.1s0.3-0.6,0.6-0.9c0.3-0.2,0.6-0.4,1-0.6c0.4-0.1,0.9-0.2,1.4-0.2c0.2,0,0.3,0,0.5,0c0.2,0,0.3,0,0.5,0.1
			l-0.1,0.8c0,0,0,0.1,0,0.1c0,0-0.1,0.1-0.1,0.1c0,0-0.1,0-0.1,0c-0.1,0-0.1,0-0.2,0c-0.4,0-0.7,0-1,0.1c-0.3,0.1-0.5,0.2-0.6,0.3
			s-0.3,0.3-0.3,0.5c-0.1,0.2-0.1,0.4-0.1,0.7v0.1h3.9v6.1h-1.7v-5h-2.2v5H107.5z"/>
		<path class="st3" d="M116.7,95.6v8.9H115v-8.9H116.7z"/>
		<path class="st3" d="M120,101.7c0.1,0.6,0.2,1,0.5,1.3s0.6,0.4,1.1,0.4c0.2,0,0.4,0,0.6-0.1c0.2-0.1,0.3-0.1,0.4-0.2
			c0.1-0.1,0.2-0.1,0.3-0.2s0.2-0.1,0.3-0.1c0.1,0,0.2,0,0.3,0.1l0.5,0.6c-0.2,0.2-0.4,0.4-0.6,0.5c-0.2,0.1-0.4,0.2-0.7,0.3
			c-0.2,0.1-0.5,0.1-0.7,0.2c-0.2,0-0.5,0-0.7,0c-0.4,0-0.8-0.1-1.2-0.2s-0.7-0.4-1-0.6s-0.5-0.6-0.7-1c-0.2-0.4-0.2-0.9-0.2-1.4
			c0-0.4,0.1-0.8,0.2-1.2c0.1-0.4,0.3-0.7,0.6-1c0.3-0.3,0.6-0.5,0.9-0.7c0.4-0.2,0.8-0.2,1.3-0.2c0.4,0,0.8,0.1,1.1,0.2
			c0.3,0.1,0.6,0.3,0.9,0.5c0.2,0.2,0.4,0.5,0.6,0.9c0.1,0.4,0.2,0.7,0.2,1.2c0,0.1,0,0.2,0,0.3c0,0.1,0,0.1-0.1,0.2
			c0,0-0.1,0.1-0.1,0.1c0,0-0.1,0-0.2,0H120z M122.6,100.7c0-0.2,0-0.3-0.1-0.5c0-0.2-0.1-0.3-0.2-0.4c-0.1-0.1-0.2-0.2-0.4-0.3
			c-0.2-0.1-0.3-0.1-0.5-0.1c-0.4,0-0.7,0.1-0.9,0.3c-0.2,0.2-0.4,0.5-0.4,1H122.6z"/>
	</g>
</g>
</svg>
