<?xml version="1.0" encoding="UTF-8" standalone="no"?>
<!-- Created with Inkscape (http://www.inkscape.org/) -->

<svg
   xmlns:dc="http://purl.org/dc/elements/1.1/"
   xmlns:cc="http://creativecommons.org/ns#"
   xmlns:rdf="http://www.w3.org/1999/02/22-rdf-syntax-ns#"
   xmlns:svg="http://www.w3.org/2000/svg"
   xmlns="http://www.w3.org/2000/svg"
   xmlns:sodipodi="http://sodipodi.sourceforge.net/DTD/sodipodi-0.dtd"
   xmlns:inkscape="http://www.inkscape.org/namespaces/inkscape"
   width="230"
   height="58"
   viewBox="0 0 60.854165 15.345834"
   version="1.1"
   id="svg8"
   inkscape:version="0.92.3 (2405546, 2018-03-11)"
   sodipodi:docname="iconsvg.svg">
  <defs
     id="defs2" />
  <sodipodi:namedview
     id="base"
     pagecolor="#ffffff"
     bordercolor="#666666"
     borderopacity="1.0"
     inkscape:pageopacity="0.0"
     inkscape:pageshadow="2"
     inkscape:zoom="1.4778708"
     inkscape:cx="238.34562"
     inkscape:cy="19.393768"
     inkscape:document-units="px"
     inkscape:current-layer="layer1"
     showgrid="false"
     units="px"
     inkscape:window-width="1281"
     inkscape:window-height="787"
     inkscape:window-x="585"
     inkscape:window-y="172"
     inkscape:window-maximized="0" />
  <metadata
     id="metadata5">
    <rdf:RDF>
      <cc:Work
         rdf:about="">
        <dc:format>image/svg+xml</dc:format>
        <dc:type
           rdf:resource="http://purl.org/dc/dcmitype/StillImage" />
        <dc:title></dc:title>
      </cc:Work>
    </rdf:RDF>
  </metadata>
  <g
     inkscape:label="Layer 1"
     inkscape:groupmode="layer"
     id="layer1"
     transform="translate(0,-281.65414)">
    <g
       transform="matrix(0.24983519,0,0,0.2947875,4.940191,209.9254)"
       id="layer1-9"
       inkscape:label="Layer 1">
      <g
         transform="matrix(3.6243387,0,0,3.0350012,-401.02224,-326.78698)"
         inkscape:label="Layer 1"
         id="layer1-2">
        <g
           id="g3741"
           transform="matrix(0.26458333,0,0,0.26458333,96.139823,181.99885)">
          <g
             id="g3721">
            <circle
               id="circle3717"
               r="28.4"
               cy="54.700001"
               cx="87.300003"
               class="st1"
               style="fill:#ffffff" />
            <path
               id="path3719"
               d="m 88.1,55.8 v 10.9 c 0,0.4 0.2,0.8 0.5,1 l 3.2,2.6 c 0.2,0.1 0.2,0.3 0.1,0.5 -0.1,0.2 -0.2,0.3 -0.4,0.3 H 83 c -0.2,0 -0.4,-0.1 -0.4,-0.3 -0.1,-0.2 0,-0.4 0.1,-0.5 l 3.1,-2.5 c 0.3,-0.3 0.5,-0.6 0.5,-1 v -11 c 0,-0.7 -0.2,-1.3 -0.7,-1.8 L 73.9,40.7 c -0.1,-0.1 -0.1,-0.3 -0.1,-0.5 0,-0.2 0.2,-0.3 0.4,-0.3 h 5.1 c 0,0.2 0,0.3 0,0.5 0,1.8 1.4,3.2 3.2,3.2 1.8,0 3.2,-1.4 3.2,-3.2 0,-0.2 0,-0.3 0,-0.5 h 14.7 c 0.2,0 0.3,0.1 0.4,0.3 0.1,0.2 0,0.4 -0.1,0.5 L 88.8,53.9 c -0.4,0.5 -0.7,1.2 -0.7,1.9 z M 82.5,42.5 c 1.2,0 2.1,-1 2.1,-2.1 0,-0.2 0,-0.3 -0.1,-0.5 -0.1,-0.4 -0.3,-0.8 -0.6,-1.1 -0.4,-0.4 -0.9,-0.6 -1.5,-0.6 -0.6,0 -1.1,0.2 -1.5,0.6 -0.3,0.3 -0.5,0.7 -0.6,1.1 0,0.1 -0.1,0.3 -0.1,0.5 0.2,1.2 1.1,2.1 2.3,2.1 z"
               class="st0"
               inkscape:connector-curvature="0"
               style="fill:#4f748c" />
          </g>
          <g
             id="g3739">
            <path
               id="path3723"
               d="m 127.9,58.6 c 0.1,0.7 0.3,1.3 0.5,1.9 0.3,0.6 0.6,1.1 1.1,1.5 0.4,0.4 0.9,0.7 1.5,1 0.6,0.2 1.1,0.4 1.8,0.4 1,0 1.8,-0.2 2.6,-0.7 0.8,-0.5 1.4,-1.1 1.9,-1.8 l 2.2,1.4 c -0.7,1.1 -1.6,2 -2.8,2.7 -1.2,0.7 -2.5,1 -3.9,1 -1,0 -1.9,-0.2 -2.8,-0.6 -0.9,-0.4 -1.6,-0.9 -2.3,-1.5 -0.7,-0.7 -1.2,-1.4 -1.6,-2.3 -0.4,-0.9 -0.7,-1.9 -0.8,-2.9 0,-0.1 0,-0.2 0,-0.3 0,-0.1 0,-0.3 0,-0.4 0,-0.7 0.1,-1.3 0.2,-1.9 0.2,-0.9 0.5,-1.7 1,-2.5 0.5,-0.8 1,-1.4 1.6,-2 0.6,-0.6 1.4,-1 2.2,-1.3 0.8,-0.3 1.6,-0.5 2.5,-0.5 0.9,0 1.7,0.2 2.5,0.5 0.8,0.3 1.5,0.7 2.2,1.3 0.6,0.6 1.2,1.2 1.6,2 0.5,0.8 0.8,1.6 1,2.5 0.1,0.6 0.2,1.2 0.2,1.9 0,0.1 0,0.3 0,0.4 0,0.1 0,0.2 0,0.3 h -12.4 z m 9.4,-2.6 c -0.4,-1.1 -0.9,-1.9 -1.8,-2.6 -0.8,-0.7 -1.8,-1 -2.8,-1 -1.1,0 -2,0.3 -2.8,1 -0.8,0.7 -1.4,1.5 -1.8,2.6 z"
               class="st1"
               inkscape:connector-curvature="0"
               style="fill:#ffffff" />
            <path
               id="path3725"
               d="m 158.3,50.3 -6.5,15 h -2.6 l -6.5,-15 h 2.8 l 4.9,11.4 4.9,-11.4 z"
               class="st1"
               inkscape:connector-curvature="0"
               style="fill:#ffffff" />
            <path
               id="path3727"
               d="m 163.5,58.6 c 0.1,0.7 0.3,1.3 0.5,1.9 0.3,0.6 0.6,1.1 1.1,1.5 0.4,0.4 0.9,0.7 1.5,1 0.6,0.2 1.1,0.4 1.8,0.4 1,0 1.8,-0.2 2.6,-0.7 0.8,-0.5 1.4,-1.1 1.9,-1.8 l 2.2,1.4 c -0.7,1.1 -1.6,2 -2.8,2.7 -1.2,0.7 -2.5,1 -3.9,1 -1,0 -1.9,-0.2 -2.8,-0.6 -0.9,-0.4 -1.6,-0.9 -2.3,-1.5 -0.7,-0.7 -1.2,-1.4 -1.6,-2.3 -0.4,-0.9 -0.7,-1.9 -0.8,-2.9 0,-0.1 0,-0.2 0,-0.3 0,-0.1 0,-0.3 0,-0.4 0,-0.7 0.1,-1.3 0.2,-1.9 0.2,-0.9 0.5,-1.7 1,-2.5 0.5,-0.8 1,-1.4 1.6,-2 0.6,-0.6 1.4,-1 2.2,-1.3 0.8,-0.3 1.6,-0.5 2.5,-0.5 0.9,0 1.7,0.2 2.5,0.5 0.8,0.3 1.5,0.7 2.2,1.3 0.6,0.6 1.2,1.2 1.6,2 0.5,0.8 0.8,1.6 1,2.5 0.1,0.6 0.2,1.2 0.2,1.9 0,0.1 0,0.3 0,0.4 0,0.1 0,0.2 0,0.3 h -12.4 z m 9.4,-2.6 c -0.4,-1.1 -0.9,-1.9 -1.8,-2.6 -0.8,-0.7 -1.8,-1 -2.8,-1 -1.1,0 -2,0.3 -2.8,1 -0.8,0.7 -1.4,1.5 -1.8,2.6 z"
               class="st1"
               inkscape:connector-curvature="0"
               style="fill:#ffffff" />
            <path
               id="path3729"
               d="m 194.1,54.8 c 0,0.2 0.1,0.4 0.1,0.6 0,0.2 0,0.3 0,0.5 v 0.4 9 h -2.7 v -8.8 c 0,-0.3 0,-0.7 -0.1,-1.2 -0.1,-0.5 -0.2,-0.9 -0.5,-1.4 -0.3,-0.4 -0.6,-0.8 -1.1,-1.1 -0.5,-0.3 -1.2,-0.5 -2,-0.5 -1,0 -1.8,0.2 -2.4,0.5 -0.6,0.3 -1.1,0.7 -1.4,1.1 -0.3,0.4 -0.5,0.9 -0.6,1.3 -0.1,0.4 -0.2,0.8 -0.2,1 v 9.2 h -2.7 v -15 h 2.7 v 1.3 c 0,0 0.1,-0.1 0.3,-0.3 0.2,-0.2 0.5,-0.4 0.9,-0.7 0.4,-0.2 0.9,-0.4 1.4,-0.6 0.6,-0.2 1.2,-0.3 2,-0.3 1.1,0 2.1,0.2 2.9,0.5 0.8,0.3 1.4,0.8 1.8,1.3 0.5,0.5 0.8,1.1 1,1.7 0.3,0.5 0.5,1.1 0.6,1.5 z"
               class="st1"
               inkscape:connector-curvature="0"
               style="fill:#ffffff" />
            <path
               id="path3731"
               d="m 206.9,65.6 c -0.1,0 -0.2,0.1 -0.5,0.2 -0.3,0.1 -0.6,0.1 -1,0.2 -0.4,0 -0.9,0 -1.3,-0.1 -0.5,-0.1 -1,-0.3 -1.4,-0.6 -1.4,-0.9 -2.1,-2.7 -2.1,-5.3 v -7 h -1.9 v -2.6 h 1.9 v -6.9 h 2.6 v 6.9 h 3.1 V 53 h -3.1 v 7 c 0,1.6 0.3,2.7 0.9,3.1 0.2,0.1 0.4,0.2 0.6,0.2 0.2,0 0.4,0 0.6,0 0.2,0 0.4,-0.1 0.7,-0.1 z"
               class="st1"
               inkscape:connector-curvature="0"
               style="fill:#ffffff" />
            <path
               id="path3733"
               d="m 226.3,49.8 c 1,0 2,0.2 2.9,0.6 0.9,0.4 1.7,1 2.4,1.7 0.7,0.7 1.2,1.6 1.6,2.5 0.4,1 0.6,2 0.6,3.2 0,1.1 -0.2,2.1 -0.6,3.1 -0.4,1 -0.9,1.8 -1.6,2.6 -0.7,0.7 -1.5,1.3 -2.4,1.7 -0.9,0.4 -1.9,0.6 -2.9,0.6 -1,0 -2,-0.2 -2.9,-0.6 -0.9,-0.4 -1.7,-1 -2.3,-1.7 v 1.7 h -2.7 V 43.4 h 2.7 v 8.7 c 0.7,-0.7 1.4,-1.3 2.3,-1.7 0.9,-0.4 1.8,-0.6 2.9,-0.6 z m -0.2,13.5 c 0.7,0 1.3,-0.1 2,-0.4 0.6,-0.3 1.2,-0.7 1.6,-1.2 0.5,-0.5 0.8,-1.1 1.1,-1.8 0.3,-0.7 0.4,-1.4 0.4,-2.1 0,-0.7 -0.1,-1.5 -0.4,-2.1 -0.3,-0.7 -0.6,-1.2 -1.1,-1.7 -0.5,-0.5 -1,-0.9 -1.6,-1.2 -0.6,-0.3 -1.3,-0.4 -2,-0.4 -0.7,0 -1.3,0.1 -2,0.4 -0.6,0.3 -1.2,0.7 -1.6,1.2 -0.5,0.5 -0.8,1.1 -1.1,1.7 -0.3,0.7 -0.4,1.4 -0.4,2.1 0,0.7 0.1,1.5 0.4,2.1 0.3,0.7 0.6,1.2 1.1,1.8 0.5,0.5 1,0.9 1.6,1.2 0.6,0.3 1.3,0.4 2,0.4 z"
               class="st2"
               inkscape:connector-curvature="0"
               style="fill:#bfcdd7" />
            <path
               id="path3735"
               d="m 241.6,46.1 c 0,0.5 -0.2,0.9 -0.5,1.2 -0.3,0.3 -0.7,0.5 -1.2,0.5 -0.5,0 -0.9,-0.2 -1.2,-0.5 -0.3,-0.3 -0.5,-0.8 -0.5,-1.2 0,-0.4 0.2,-0.9 0.5,-1.2 0.3,-0.3 0.8,-0.5 1.2,-0.5 0.5,0 0.9,0.2 1.2,0.5 0.3,0.3 0.5,0.7 0.5,1.2 z m -0.4,19.2 h -2.7 v -15 h 2.7 z"
               class="st2"
               inkscape:connector-curvature="0"
               style="fill:#bfcdd7" />
            <path
               id="path3737"
               d="m 261.4,43.4 v 21.9 h -2.7 v -1.7 c -0.7,0.7 -1.5,1.3 -2.4,1.7 -0.9,0.4 -1.9,0.6 -2.9,0.6 -1,0 -2,-0.2 -2.9,-0.6 -0.9,-0.4 -1.7,-1 -2.4,-1.7 -0.7,-0.7 -1.2,-1.6 -1.6,-2.6 -0.4,-1 -0.6,-2 -0.6,-3.1 0,-1.1 0.2,-2.2 0.6,-3.2 0.4,-1 0.9,-1.8 1.6,-2.6 0.7,-0.7 1.5,-1.3 2.4,-1.7 0.9,-0.4 1.9,-0.6 2.9,-0.6 1,0 2,0.2 2.9,0.6 0.9,0.4 1.7,1 2.4,1.7 v -8.7 z m -7.7,19.9 c 0.7,0 1.3,-0.1 2,-0.4 0.6,-0.3 1.2,-0.7 1.6,-1.2 0.5,-0.5 0.8,-1.1 1.1,-1.7 0.3,-0.7 0.4,-1.4 0.4,-2.1 0,-0.7 -0.1,-1.5 -0.4,-2.1 -0.3,-0.7 -0.6,-1.2 -1.1,-1.7 -0.5,-0.5 -1,-0.9 -1.6,-1.2 -0.6,-0.3 -1.3,-0.4 -2,-0.4 -0.7,0 -1.3,0.1 -2,0.4 -0.6,0.3 -1.2,0.7 -1.6,1.2 -0.5,0.5 -0.8,1.1 -1.1,1.7 -0.3,0.7 -0.4,1.4 -0.4,2.1 0,0.7 0.1,1.5 0.4,2.1 0.3,0.7 0.6,1.2 1.1,1.7 0.5,0.5 1,0.9 1.6,1.2 0.6,0.3 1.3,0.4 2,0.4 z"
               class="st2"
               inkscape:connector-curvature="0"
               style="fill:#bfcdd7" />
          </g>
        </g>
      </g>
    </g>
  </g>
  <style
     id="style3713"
     type="text/css">
	.st0{fill:#4F748C;}
	.st1{fill:#FFFFFF;}
	.st2{fill:#BFCDD7;}
</style>
</svg>
